# xmcd CD database file
#
# Track frame offsets:
#	150
#	20232
#	32525
#	49582
#	64070
#	78412
#	95117
#	105890
#	120672
#	136265
#	150547
#	162780
#	180537
#	196325
#	211592
#	229532
#	241265
#	258322
#	272275
#	286367
#
# Disc length: 3981 seconds
#
# Revision: 0
# Processed by: cddbd v1.4PL0 Copyright (c) Steve Scherf et al.
# Submitted via: CDex 1.40Release
#
DISCID=fd0f8b14
DTITLE=Bobby Vinton - The best of Bobby Vinton
DYEAR=1900
DGENRE=Blues
TTITLE0=Blue Velvet
TTITLE1=Mr.Lonely
TTITLE2=Roses Are Red
TTITLE3=Melody Of Love
TTITLE4=Blue On Blue
TTITLE5=I've Always Loved You
TTITLE6=Getting Used to Being Loved Again 
TTITLE7=The Last Rose
TTITLE8=It's Been One Of These Days
TTITLE9=How Old Do You Get
TTITLE10=Sealed With a Kiss
TTITLE11=What Did You Do With Your Old 45'S
TTITLE12=Please Tell HerThat I Said Hello
TTITLE13=The Only FireThat Burns
TTITLE14=Ain't No Pleasin'You
TTITLE15=A Fool Such As I
TTITLE16=This Time I Know It's Real
TTITLE17=I Made Love
TTITLE18=Are You Sincere
TTITLE19=Because Of You
EXTD=ID3G: 0
EXTT0=
EXTT1=
EXTT2=
EXTT3=
EXTT4=
EXTT5=
EXTT6=
EXTT7=
EXTT8=
EXTT9=
EXTT10=
EXTT11=
EXTT12=
EXTT13=
EXTT14=
EXTT15=
EXTT16=
EXTT17=
EXTT18=
EXTT19=
PLAYORDER=
